<svg xmlns="http://www.w3.org/2000/svg" viewBox="0 0 32 32" fill="none">
  <rect width="32" height="32" rx="8" fill="#EEF4FF"/>
  <!-- head -->
  <ellipse cx="16" cy="11.5" rx="7.5" ry="6.5" fill="#3B82F6" stroke="#1E3A5F" stroke-width="1.4"/>
  <rect x="13.5" y="5.2" width="5" height="2.2" rx="1" fill="#F97316" stroke="#1E3A5F" stroke-width="0.9"/>
  <!-- ears -->
  <circle cx="8.8" cy="11" r="2.2" fill="#F97316" stroke="#1E3A5F" stroke-width="1.1"/>
  <circle cx="23.2" cy="11" r="2.2" fill="#F97316" stroke="#1E3A5F" stroke-width="1.1"/>
  <!-- antennae -->
  <line x1="8.8" y1="8.8" x2="7.2" y2="5.5" stroke="#1E3A5F" stroke-width="1.1" stroke-linecap="round"/>
  <circle cx="7.2" cy="5.2" r="1.1" fill="#3B82F6" stroke="#1E3A5F" stroke-width="0.8"/>
  <line x1="23.2" y1="8.8" x2="24.8" y2="5.5" stroke="#1E3A5F" stroke-width="1.1" stroke-linecap="round"/>
  <circle cx="24.8" cy="5.2" r="1.1" fill="#3B82F6" stroke="#1E3A5F" stroke-width="0.8"/>
  <!-- face -->
  <ellipse cx="13.2" cy="11.2" rx="1.6" ry="2" fill="#0F172A"/>
  <ellipse cx="18.8" cy="11.2" rx="1.6" ry="2" fill="#0F172A"/>
  <circle cx="13.7" cy="10.5" r="0.45" fill="#fff"/>
  <circle cx="19.3" cy="10.5" r="0.45" fill="#fff"/>
  <path d="M14.8 14.2c.7.7 1.7.7 2.4 0" stroke="#0F172A" stroke-width="1" stroke-linecap="round"/>
  <!-- body -->
  <path d="M10 17.5h5.2c.4 0 .7.3.7.7v3.3c0 .4-.3.7-.7.7H10.5c-.6 0-1-.5-.9-1.1l.4-3c.05-.35.35-.6.7-.6z" fill="#3B82F6" stroke="#1E3A5F" stroke-width="1.1"/>
  <path d="M16.8 17.5H22c.35 0 .65.25.7.6l.4 3c.1.6-.3 1.1-.9 1.1h-4.7c-.4 0-.7-.3-.7-.7v-3.3c0-.4.3-.7.7-.7z" fill="#F97316" stroke="#1E3A5F" stroke-width="1.1"/>
  <!-- claw -->
  <path d="M7.5 18.5h2.2v2H7.8l-.8 1.4M7.8 20.5l-.8-1.4" stroke="#1E3A5F" stroke-width="1.2" stroke-linecap="round" stroke-linejoin="round" fill="none"/>
  <!-- cannon -->
  <rect x="22.5" y="18.2" width="5" height="2.6" rx="1.1" fill="#94A3B8" stroke="#1E3A5F" stroke-width="1"/>
  <rect x="26.2" y="17.8" width="2.2" height="3.4" rx="0.8" fill="#F97316" stroke="#1E3A5F" stroke-width="0.9"/>
  <!-- treads -->
  <rect x="8" y="22.5" width="16" height="5.5" rx="2.2" fill="#334155" stroke="#1E3A5F" stroke-width="1.2"/>
  <circle cx="12" cy="25.2" r="1.5" fill="#64748B" stroke="#1E3A5F" stroke-width="0.8"/>
  <circle cx="16.5" cy="25.2" r="1.1" fill="#64748B" stroke="#1E3A5F" stroke-width="0.7"/>
  <circle cx="20.5" cy="25.2" r="1.1" fill="#64748B" stroke="#1E3A5F" stroke-width="0.7"/>
</svg>
